<svg width="15" height="15" viewBox="0 0 15 15" fill="none" xmlns="http://www.w3.org/2000/svg">
<path d="M8.47917 7.5L14.2361 1.74305C14.3499 1.6102 14.4093 1.43932 14.4026 1.26454C14.3958 1.08977 14.3234 0.923978 14.1997 0.800301C14.076 0.676624 13.9102 0.604171 13.7355 0.59742C13.5607 0.590669 13.3898 0.650118 13.2569 0.763886L7.5 6.52083L1.74306 0.756942C1.61229 0.626175 1.43493 0.552711 1.25 0.552711C1.06507 0.552711 0.887711 0.626175 0.756944 0.756942C0.626178 0.887708 0.552714 1.06507 0.552714 1.25C0.552714 1.43493 0.626178 1.61229 0.756944 1.74305L6.52083 7.5L0.756944 13.2569C0.684249 13.3192 0.625207 13.3958 0.583524 13.482C0.541841 13.5681 0.518418 13.662 0.514723 13.7576C0.511029 13.8532 0.527144 13.9486 0.562057 14.0377C0.59697 14.1268 0.649927 14.2078 0.717604 14.2754C0.785281 14.3431 0.866217 14.3961 0.955331 14.431C1.04445 14.4659 1.13982 14.482 1.23545 14.4783C1.33109 14.4746 1.42493 14.4512 1.51109 14.4095C1.59725 14.3678 1.67386 14.3088 1.73611 14.2361L7.5 8.47916L13.2569 14.2361C13.3898 14.3499 13.5607 14.4093 13.7355 14.4026C13.9102 14.3958 14.076 14.3234 14.1997 14.1997C14.3234 14.076 14.3958 13.9102 14.4026 13.7355C14.4093 13.5607 14.3499 13.3898 14.2361 13.2569L8.47917 7.5Z" fill="#BDBDBD"/>
</svg>
