<svg width="18" height="18" viewBox="0 0 18 18" fill="none" xmlns="http://www.w3.org/2000/svg">
<path d="M11.828 9L13.243 10.414L16.071 7.586C16.8212 6.83584 17.2426 5.81839 17.2426 4.7575C17.2426 3.69661 16.8212 2.67916 16.071 1.929C15.6996 1.55756 15.2586 1.26291 14.7733 1.06189C14.288 0.860863 13.7678 0.757397 13.2425 0.757397C12.1816 0.757397 11.1642 1.17883 10.414 1.929L7.586 4.757L9 6.172L11.828 3.343C12.2032 2.96785 12.712 2.75709 13.2425 2.75709C13.773 2.75709 14.2819 2.96785 14.657 3.343C15.0322 3.71815 15.2429 4.22696 15.2429 4.7575C15.2429 5.28804 15.0322 5.79685 14.657 6.172L11.828 9ZM9 11.829L10.414 13.243L7.586 16.071C6.83584 16.8212 5.8184 17.2426 4.7575 17.2426C3.69661 17.2426 2.67917 16.8212 1.929 16.071C1.17884 15.3208 0.757401 14.3034 0.757401 13.2425C0.757401 12.1816 1.17884 11.1642 1.929 10.414L4.757 7.586L6.172 9L3.343 11.829C2.96799 12.2041 2.75736 12.7129 2.75745 13.2434C2.75755 13.7738 2.96835 14.2825 3.3435 14.6575C3.71865 15.0325 4.22741 15.2431 4.75786 15.2431C5.2883 15.243 5.79699 15.0321 6.172 14.657L9 11.828V11.829Z" fill="#999999"/>
<path d="M11.829 7.586C12.0166 7.39836 12.1221 7.14386 12.1221 6.8785C12.1221 6.61314 12.0166 6.35864 11.829 6.171C11.6414 5.98336 11.3869 5.87794 11.1215 5.87794C10.8561 5.87794 10.6016 5.98336 10.414 6.171L6.172 10.414C6.07649 10.5062 6.00031 10.6166 5.9479 10.7386C5.89549 10.8606 5.86791 10.9918 5.86675 11.1246C5.8656 11.2574 5.8909 11.3891 5.94118 11.512C5.99146 11.6349 6.06571 11.7465 6.15961 11.8404C6.2535 11.9343 6.36515 12.0085 6.48805 12.0588C6.61094 12.1091 6.74262 12.1344 6.8754 12.1333C7.00818 12.1321 7.1394 12.1045 7.26141 12.0521C7.38341 11.9997 7.49376 11.9235 7.586 11.828L11.828 7.586H11.829Z" fill="#999999"/>
</svg>
